<svg width="31" height="27" viewBox="0 0 31 27" fill="none" xmlns="http://www.w3.org/2000/svg">
<path d="M20.3705 2.26306L22.0061 0.0108687L26.9265 3.66571C28.554 4.85798 29.6707 6.13083 30.2766 7.48426C30.8943 8.83578 31.092 10.1985 30.8699 11.5725C30.6478 12.9465 30.0923 14.254 29.2035 15.495C28.3148 16.7361 27.2571 17.6809 26.0307 18.3296C24.811 18.9832 23.4685 19.2332 22.0032 19.0797C20.5428 18.9193 19.0057 18.2479 17.3917 17.0655L16.6334 16.4609L18.1523 14.2324L18.9311 14.7435C20.0454 15.5598 21.08 16.0199 22.0352 16.1238C22.9904 16.2277 23.8581 16.0584 24.6383 15.6159C25.4301 15.1716 26.128 14.5277 26.732 13.6844C27.336 12.841 27.7208 11.973 27.8865 11.0804C28.0589 10.1927 27.9392 9.31045 27.5272 8.43368C27.1202 7.55006 26.3528 6.69515 25.2251 5.86897L20.3705 2.26306Z" fill="#010926"/>
<path d="M8.91386 26.7865L10.9424 23.811H20.2192L20.2192 27L8.91386 26.7865Z" fill="#010926"/>
<path d="M0.17194 27V23.627L15.0006 2.89879L17.2634 0.0158174H21.9716L4.76052 23.627L2.35411 27H0.17194Z" fill="#010926"/>
<path d="M8.57318 3.40158L6.29538e-06 3.3954L0 0.11987L11.088 0L8.57318 3.40158Z" fill="#010926"/>
</svg>
