<svg width="35" height="27" viewBox="0 0 35 27" fill="none" xmlns="http://www.w3.org/2000/svg">
<path d="M20.9697 2.26306L22.6534 0.0108687L27.7185 3.66571C29.3938 4.85798 30.5433 6.13083 31.1671 7.48426C31.8029 8.83578 32.0065 10.1985 31.7778 11.5725C31.5492 12.9465 30.9774 14.254 30.0625 15.495C29.1475 16.7361 28.0588 17.6809 26.7963 18.3296C25.5407 18.9832 24.1587 19.2332 22.6503 19.0797C21.147 18.9193 19.5646 18.2479 17.9032 17.0655L17.1226 16.4609L18.6862 14.2324L19.4879 14.7435C20.6349 15.5598 21.7 16.0199 22.6833 16.1238C23.6666 16.2277 24.5598 16.0584 25.3629 15.6159C26.1781 15.1716 26.8965 14.5277 27.5182 13.6844C28.14 12.841 28.5361 11.973 28.7067 11.0804C28.8842 10.1927 28.7609 9.31045 28.3368 8.43368C27.9178 7.55006 27.1279 6.69515 25.967 5.86897L20.9697 2.26306Z" fill="#F8F8F8"/>
<path d="M9.17603 26.7865L11.2642 23.811H13.2771H20.8139L20.8139 27L9.17603 26.7865Z" fill="#F8F8F8"/>
<path d="M0.176994 27V23.627L15.4417 2.8988L17.7712 0.0158234H20.8253H22.6178L4.90054 23.627L2.42335 27H0.176994Z" fill="#F8F8F8"/>
<path d="M8.82533 3.40158H7.90582L6.48054e-06 3.3954L0 0.11987L11.4141 0L8.82533 3.40158Z" fill="#F8F8F8"/>
</svg>
